<svg xmlns="http://www.w3.org/2000/svg" viewBox="0 0 160 160"><defs><linearGradient id="g" x1="0" x2="1" y1="0" y2="1"><stop stop-color="#f5dc91"/><stop offset=".55" stop-color="#d9a441"/><stop offset="1" stop-color="#9b681d"/></linearGradient></defs><rect width="160" height="160" rx="44" fill="#080808"/><rect x="5" y="5" width="150" height="150" rx="40" fill="none" stroke="#d9a441" stroke-opacity=".5"/><path d="M80 25c25 15 38 38 38 64 0 27-16 46-38 59-22-13-38-32-38-59 0-26 13-49 38-64Z" fill="url(#g)"/><g fill="#6b430d"><circle cx="65" cy="55" r="6"/><circle cx="82" cy="50" r="6"/><circle cx="97" cy="58" r="6"/><circle cx="61" cy="74" r="6"/><circle cx="80" cy="70" r="6"/><circle cx="99" cy="77" r="6"/><circle cx="64" cy="94" r="6"/><circle cx="83" cy="90" r="6"/><circle cx="98" cy="99" r="6"/><circle cx="73" cy="113" r="6"/><circle cx="91" cy="111" r="6"/></g><path d="M50 105c-17 0-29-9-35-22 19-2 34 4 43 17M110 105c17 0 29-9 35-22-19-2-34 4-43 17" fill="#427c45"/></svg>
